# 3ds Max Wavefront OBJ Exporter v0.97b - (c)2007 guruware
# File Created: 09.07.2019 09:20:38

mtllib nock.mtl

#
# object Box001
#

v  0.0000 -0.2500 -1.0000
v  0.0000 1.2500 -1.0000
v  -0.0000 1.2500 1.0000
v  -0.0000 -0.2500 1.0000
v  -1.0000 -0.2500 -1.0000
v  -1.0000 -0.2500 1.0000
v  -1.0000 1.2500 1.0000
v  -1.0000 1.2500 -1.0000
v  -1.0270 1.2194 -1.0270
v  -1.0270 1.2194 1.0270
v  -1.0270 1.2712 1.0270
v  -1.0270 1.2712 -1.0270
v  0.0000 1.2194 -1.0270
v  -0.0000 1.2194 1.0270
v  -0.0187 1.3696 1.0270
v  -0.0187 1.3696 -1.0270
v  -0.1384 1.7507 -1.0500
v  -0.5738 1.9264 -1.0500
v  -0.5738 1.9264 1.0500
v  -0.1384 1.7507 1.0500
v  0.0486 1.2095 -1.0500
v  0.0486 1.2095 1.0500
v  -0.5738 1.2072 1.0500
v  -0.5738 1.2072 -1.0500
v  -0.5830 1.9042 1.0320
v  -0.5830 1.9042 -1.0320
v  -0.1549 1.7342 -1.0311
v  -0.1549 1.7342 1.0311
v  0.0275 1.2226 -1.0331
v  0.0275 1.2226 1.0331
v  -0.5753 1.2288 1.0293
v  -0.5753 1.2288 -1.0293
# 32 vertices

vn 1.0000 0.0000 0.0000
vn -1.0000 -0.0000 -0.0000
vn -0.0000 0.0000 1.0000
vn 0.0000 0.0000 -1.0000
vn -1.0000 0.0000 -0.0000
vn 0.0000 -1.0000 0.0000
vn -0.0000 -0.0000 1.0000
vn -0.0971 0.9953 -0.0000
vn 0.0000 -0.0000 -1.0000
vn 0.7249 0.6889 -0.0000
vn 0.3743 0.9273 -0.0000
vn 0.9451 0.3267 -0.0000
vn 0.0037 -1.0000 0.0000
vn -0.3691 -0.9294 0.0000
vn -0.7197 -0.6942 0.0000
vn -0.9419 -0.3359 0.0000
vn 0.0022 0.0003 -1.0000
vn -0.0043 -0.0055 -1.0000
vn 0.0030 0.0010 -1.0000
vn 0.0065 0.0041 -1.0000
vn 0.0033 0.0008 1.0000
vn 0.0064 -0.0017 1.0000
vn 0.0026 0.0014 1.0000
vn -0.0005 0.0040 1.0000
vn 0.0104 0.9999 -0.0000
vn -0.9489 0.1863 -0.2547
vn -0.9503 0.1921 0.2451
vn -0.9517 0.2229 0.2110
vn -0.9532 0.2178 -0.2099
vn -0.9988 -0.0399 0.0300
vn -0.9985 -0.0407 0.0363
vn -0.9987 -0.0341 -0.0385
vn -0.9988 -0.0352 -0.0348
# 33 vertex normals

vt 0.9980 0.0020 0.0000
vt 0.9980 0.1559 0.0000
vt 0.7928 0.1559 0.0000
vt 0.7928 0.0020 0.0000
vt 0.4849 0.0020 0.0000
vt 0.6902 0.0020 0.0000
vt 0.6902 0.1559 0.0000
vt 0.4849 0.1559 0.0000
vt 0.3823 0.1559 0.0000
vt 0.3823 0.0020 0.0000
vt 0.2285 0.5196 0.0000
vt 0.0174 0.5196 0.0000
vt 0.0174 0.5143 0.0000
vt 0.2285 0.5143 0.0000
vt 0.2285 0.6252 0.0000
vt 0.0174 0.6252 0.0000
vt 0.0020 0.4106 0.0000
vt 0.0174 0.4107 0.0000
vt 0.0121 0.5143 0.0000
vt 0.2285 0.4107 0.0000
vt 0.2439 0.4106 0.0000
vt 0.2338 0.5143 0.0000
vt 0.0771 0.2131 0.0000
vt 0.0771 0.1677 0.0000
vt 0.2964 0.1677 0.0000
vt 0.2964 0.2131 0.0000
vt 0.0771 0.2696 0.0000
vt 0.2964 0.2696 0.0000
vt 0.3529 0.2892 0.0000
vt 0.3715 0.3346 0.0000
vt 0.2964 0.3346 0.0000
vt 0.0206 0.2892 0.0000
vt 0.0771 0.3346 0.0000
vt 0.0020 0.3346 0.0000
vt 0.2945 0.1653 0.0000
vt 0.0790 0.1653 0.0000
vt 0.0791 0.1206 0.0000
vt 0.2944 0.1206 0.0000
vt 0.0789 0.0672 0.0000
vt 0.2946 0.0672 0.0000
vt 0.3692 0.3365 0.0000
vt 0.3525 0.3812 0.0000
vt 0.2991 0.3997 0.0000
vt 0.2987 0.3368 0.0000
vt 0.0748 0.3355 0.0000
vt 0.0744 0.3985 0.0000
vt 0.0210 0.3799 0.0000
vt 0.0043 0.3352 0.0000
vt 0.0793 0.0043 0.0000
vt 0.2942 0.0043 0.0000
vt 0.0771 0.0020 0.0000
vt 0.2964 0.0020 0.0000
# 52 texture coords

g Box001
usemtl wire_141007058
s 2
f 1/1/1 2/2/1 3/3/1 4/4/1 
s 4
f 5/5/2 6/6/2 7/7/2 8/8/2 
s 16
f 4/4/3 3/3/3 7/7/3 6/6/3 
s 64
f 2/9/4 1/10/4 5/5/4 8/8/4 
s 4
f 9/11/2 10/12/5 11/13/5 12/14/2 
s 8
f 13/15/6 14/16/6 10/12/6 9/11/6 
s 16
f 14/17/3 15/18/7 11/13/3 10/19/3 
s 32
f 15/18/8 16/20/8 12/14/8 11/13/8 
s 64
f 16/20/9 13/21/9 9/22/9 12/14/9 
s 8
f 17/23/10 18/24/11 19/25/11 20/26/10 
f 21/27/12 17/23/10 20/26/10 22/28/12 
s 1
f 22/28/3 20/29/3 19/30/3 23/31/3 
f 17/32/9 21/27/9 24/33/9 18/34/4 
s off
f 23/31/13 24/33/13 21/27/13 22/28/13 
s 8
f 25/35/14 26/36/14 27/37/15 28/38/15 
f 28/38/15 27/37/15 29/39/16 30/40/16 
s 1
f 25/41/17 28/42/18 30/43/19 31/44/20 
f 32/45/21 29/46/22 27/47/23 26/48/24 
s off
f 29/39/25 32/49/25 31/50/25 30/40/25 
s 2
f 26/36/26 25/35/27 19/25/28 18/24/29 
f 25/41/27 31/44/30 23/31/31 19/30/28 
f 32/45/32 26/48/26 18/34/29 24/33/33 
f 31/50/30 32/49/32 24/51/33 23/52/31 
# 23 polygons

